<svg xmlns="http://www.w3.org/2000/svg" xmlns:xlink="http://www.w3.org/1999/xlink" width="23" height="13" viewBox="0 0 23 13"><defs><path id="a" d="M1101.86 1276.85a.48.48 0 0 1 0-.7c.21-.2.54-.2.75 0l5.24 4.99a.5.5 0 0 1 .15.35v.02c0 .17-.09.31-.22.4l-5.19 4.94c-.21.2-.54.2-.75 0a.48.48 0 0 1 0-.7l4.35-4.14h-18.66c-.3 0-.53-.22-.53-.5s.23-.5.53-.5h18.7z"/></defs><g transform="translate(-1086 -1275)"><use fill="#0f3681" xlink:href="#a"/><use fill="#fff" fill-opacity="0" stroke="#0f3681" stroke-miterlimit="50" stroke-width=".2" xlink:href="#a"/></g></svg>