<svg xmlns="http://www.w3.org/2000/svg" xmlns:xlink="http://www.w3.org/1999/xlink" width="35" height="50" viewBox="0 0 35 50"><defs><path id="a" d="M407.98 1183.7a.78.78 0 0 0-1.05-.39.79.79 0 0 0-.39 1.05 9.93 9.93 0 1 1-1.66-2.5c.3.33.8.35 1.13.06a.8.8 0 0 0 .05-1.13 11.53 11.53 0 0 0-20.06 7.73c0 6.35 5.17 11.52 11.52 11.52a11.54 11.54 0 0 0 10.46-16.34z"/><path id="b" d="M412.98 1189.7c.41 1.11.85 2.27.48 3.41-.38 1.18-1.48 1.9-2.45 2.54-.63.42-1.23.81-1.56 1.26-.33.47-.52 1.17-.73 1.92-.26.96-.55 2.03-1.25 2.78l3.55 12.84c.08.28 0 .58-.21.78-.2.2-.5.28-.77.19l-4.86-1.49-3.39 3.81a.77.77 0 0 1-.58.26l-.18-.02a.77.77 0 0 1-.57-.56l-3.36-12.13-.3.01-.3-.01-3.36 12.13a.77.77 0 0 1-1.33.32l-3.39-3.81-4.86 1.49a.76.76 0 0 1-.77-.19c-.21-.2-.29-.5-.21-.78l2.87-10.37a.79.79 0 0 1 .96-.55.8.8 0 0 1 .55.98l-2.49 8.98 3.97-1.22a.8.8 0 0 1 .81.23l2.77 3.11 3-10.85c-.51-.29-.97-.67-1.41-1.03-.58-.47-1.13-.92-1.64-1.09-.55-.18-1.28-.14-2.06-.11-1.19.06-2.43.12-3.41-.6s-1.32-1.99-1.62-3.1c-.21-.75-.4-1.45-.73-1.92-.33-.45-.93-.84-1.56-1.26-.97-.64-2.07-1.36-2.45-2.54-.37-1.14.07-2.3.48-3.41.28-.74.54-1.44.54-2.05 0-.6-.26-1.3-.54-2.04-.41-1.12-.85-2.28-.48-3.41.38-1.19 1.48-1.91 2.45-2.55a6.1 6.1 0 0 0 1.56-1.26c.33-.46.52-1.17.73-1.91.3-1.12.64-2.39 1.62-3.11.98-.72 2.22-.66 3.41-.6.78.04 1.51.07 2.06-.11a5.89 5.89 0 0 0 1.64-1.09c.91-.73 1.93-1.57 3.19-1.57s2.28.84 3.19 1.57c.58.48 1.13.92 1.64 1.09.55.18 1.28.15 2.06.11 1.19-.06 2.43-.12 3.41.6s1.32 1.99 1.62 3.11c.21.74.4 1.45.73 1.91.33.45.93.85 1.56 1.26.97.64 2.07 1.36 2.45 2.55.37 1.13-.07 2.29-.48 3.41a6.33 6.33 0 0 0-.54 2.04c0 .61.26 1.31.54 2.05zm-6.92 12.71a7.8 7.8 0 0 1-2.37.12c-.78-.03-1.51-.07-2.06.11-.51.17-1.06.62-1.64 1.09-.44.36-.9.74-1.41 1.03l3 10.85 2.77-3.11c.2-.23.52-.32.81-.23l3.97 1.22zm5.45-12.16c-.31-.84-.64-1.71-.64-2.6 0-.89.33-1.76.64-2.6.34-.9.66-1.76.46-2.37-.21-.65-.99-1.16-1.81-1.7-.73-.48-1.48-.97-1.98-1.66a7.5 7.5 0 0 1-.97-2.43c-.25-.95-.49-1.85-1.03-2.24-.54-.39-1.45-.35-2.42-.3-.88.04-1.79.08-2.61-.19a7.06 7.06 0 0 1-2.14-1.36c-.78-.63-1.5-1.22-2.21-1.22s-1.43.59-2.21 1.22a7.06 7.06 0 0 1-2.14 1.36c-.82.27-1.73.23-2.61.19-.97-.05-1.88-.09-2.42.3s-.78 1.29-1.03 2.24a7.5 7.5 0 0 1-.97 2.43c-.5.69-1.25 1.18-1.98 1.66-.82.54-1.6 1.05-1.81 1.7-.2.61.12 1.47.46 2.37.31.84.64 1.71.64 2.6 0 .89-.33 1.76-.64 2.6-.34.91-.66 1.76-.46 2.37.21.66.99 1.17 1.81 1.71a7.1 7.1 0 0 1 1.98 1.66c.5.69.74 1.57.97 2.42.25.95.49 1.85 1.03 2.25.54.39 1.45.34 2.42.3.32-.02.65-.03.98-.03.56 0 1.11.04 1.63.21.79.26 1.48.82 2.14 1.36.78.63 1.5 1.23 2.21 1.23s1.43-.6 2.21-1.23a7.06 7.06 0 0 1 2.14-1.36c.82-.27 1.73-.22 2.61-.18.97.04 1.88.09 2.42-.3.54-.4.78-1.3 1.03-2.25.23-.85.47-1.73.97-2.42a7.1 7.1 0 0 1 1.98-1.66c.82-.54 1.6-1.05 1.81-1.71.2-.61-.12-1.46-.46-2.37z"/><path id="c" d="M399.89 1183h-6.1c-.44 0-.79.21-.79.48s.35.48.79.48h6.1c.44 0 .79-.21.79-.48s-.35-.48-.79-.48z"/><path id="d" d="M399.89 1191h-6.1c-.44 0-.79.21-.79.48s.35.48.79.48h6.1c.44 0 .79-.21.79-.48s-.35-.48-.79-.48z"/><path id="e" d="M401.84 1186h-2.88c-.53 0-.96.21-.96.48s.43.48.96.48h2.88c.53 0 .96-.21.96-.48s-.43-.48-.96-.48z"/><path id="f" d="M397.84 1186h-6c-.46 0-.84.21-.84.48s.38.48.84.48h6c.46 0 .84-.21.84-.48s-.38-.48-.84-.48z"/></defs><g transform="translate(-379 -1169)"><use fill="#00487c" xlink:href="#a"/><use fill="#fff" fill-opacity="0" stroke="#00487c" stroke-miterlimit="50" stroke-width=".1" xlink:href="#a"/></g><g transform="translate(-379 -1169)"><use fill="#00487c" xlink:href="#b"/><use fill="#fff" fill-opacity="0" stroke="#00487c" stroke-miterlimit="50" stroke-width=".1" xlink:href="#b"/></g><g transform="translate(-379 -1169)"><use fill="#00487c" xlink:href="#c"/><use fill="#fff" fill-opacity="0" stroke="#00487c" stroke-miterlimit="50" stroke-width=".1" xlink:href="#c"/></g><g transform="translate(-379 -1169)"><use fill="#00487c" xlink:href="#d"/><use fill="#fff" fill-opacity="0" stroke="#00487c" stroke-miterlimit="50" stroke-width=".1" xlink:href="#d"/></g><g transform="translate(-379 -1169)"><use fill="#00487c" xlink:href="#e"/><use fill="#fff" fill-opacity="0" stroke="#00487c" stroke-miterlimit="50" stroke-width=".1" xlink:href="#e"/></g><g transform="translate(-379 -1169)"><use fill="#00487c" xlink:href="#f"/><use fill="#fff" fill-opacity="0" stroke="#00487c" stroke-miterlimit="50" stroke-width=".1" xlink:href="#f"/></g></svg>