<svg xmlns="http://www.w3.org/2000/svg" xmlns:xlink="http://www.w3.org/1999/xlink" width="46" height="38" viewBox="0 0 46 38"><defs><path id="a" d="M420 1341.87v4.38c0 .44-.29.73-.73.73h-42.5c-.44 0-.73-.29-.73-.73v-4.38c0-.44.29-.73.73-.73h1.77l.65-1.03a3.76 3.76 0 0 0 0-3.73l-.7-1.09h-1.72a.78.78 0 0 1-.66-.37.65.65 0 0 1 0-.73l.88-1.39a3.76 3.76 0 0 0 0-3.73l-.88-1.39a.65.65 0 0 1 0-.73c.15-.29.37-.44.66-.44h1.77l.65-1.02a3.76 3.76 0 0 0 0-3.73l-.88-1.39a.65.65 0 0 1 0-.73c.14-.29.36-.44.66-.44h21.25c.69 0 1.36.17 1.94.46l-1.58-5.87c-.07-.36.15-.8.52-.88l7.1-1.9c.37-.07.81.15.88.52l1.05 3.86c.08.1.15.21.2.3l.73 2.85a.8.8 0 0 1 0 .31l3.66 13.57.15.23.73 2.86c.02.06.02.14.01.21l1.09 4.03c.08.22 0 .36-.07.58-.07.22-.29.29-.44.37l-1.64.44h4.72c.44 0 .73.29.73.73zm-15.39-3.66c0 1.12-.42 2.15-1.12 2.93h4.46l-.86-3.2-.06-.09-.63-2.46-2.53-9.38a4.4 4.4 0 0 1-2.69 1.86 4.37 4.37 0 0 1 0 6.06 4.41 4.41 0 0 1 3.43 4.28zm4.4-21.35l-5.64 1.54.36 1.39 5.65-1.54zm-4.93 4.34l.18.67c.16.38.27.78.32 1.21l2.89 10.79 5.67-1.52-3.37-12.71zm4.2 15.55l5.62-1.53-.37-1.39-5.62 1.46zm6.74 2.7l-.76-2.85-5.65 1.52.77 2.87zm-12.83-25.29l.74 2.75 5.71-1.53-.73-2.76zm-21.76 12.06l-.14.29h19.93a2.93 2.93 0 0 0 2.9-3.28l-.21-.78a2.93 2.93 0 0 0-2.69-1.79h-19.93l.14.3a5.16 5.16 0 0 1 0 5.26zm-2.2 7.31l-.14.29h19.93a2.93 2.93 0 0 0 2.93-2.92 2.93 2.93 0 0 0-2.93-2.92h-19.93l.14.29a5.16 5.16 0 0 1 0 5.26zm2.2 7.31l-.14.3h19.93a2.93 2.93 0 0 0 0-5.85h-19.93l.14.29a5.16 5.16 0 0 1 0 5.26zm38.1 4.68v-2.92H377.5v2.92z"/><path id="b" d="M383.73 1339.53h16.1c.44 0 .74-.3.74-.76s-.3-.77-.74-.77h-16.1c-.44 0-.73.31-.73.77s.29.76.73.76z"/><path id="c" d="M381.73 1331.53h16.1c.44 0 .74-.3.74-.76s-.3-.77-.74-.77h-16.1c-.44 0-.73.31-.73.77s.29.76.73.76z"/><path id="d" d="M383.73 1324.53h16.1c.44 0 .74-.3.74-.76s-.3-.77-.74-.77h-16.1c-.44 0-.73.31-.73.77s.29.76.73.76z"/><path id="e" d="M407.01 1322.89l2.31 8.49c.15.29.45.51.75.51 0 0 .07 0 .15-.07.37-.07.59-.51.52-.88l-2.31-8.41c-.08-.37-.52-.59-.89-.52-.38.08-.6.52-.53.88z"/></defs><g transform="translate(-375 -1310)"><use fill="#00487c" xlink:href="#a"/><use fill="#fff" fill-opacity="0" stroke="#e7ecf0" stroke-miterlimit="50" stroke-width=".1" xlink:href="#a"/></g><g transform="translate(-375 -1310)"><use fill="#00487c" xlink:href="#b"/><use fill="#fff" fill-opacity="0" stroke="#e7ecf0" stroke-miterlimit="50" stroke-width=".1" xlink:href="#b"/></g><g transform="translate(-375 -1310)"><use fill="#00487c" xlink:href="#c"/><use fill="#fff" fill-opacity="0" stroke="#e7ecf0" stroke-miterlimit="50" stroke-width=".1" xlink:href="#c"/></g><g transform="translate(-375 -1310)"><use fill="#00487c" xlink:href="#d"/><use fill="#fff" fill-opacity="0" stroke="#e7ecf0" stroke-miterlimit="50" stroke-width=".1" xlink:href="#d"/></g><g transform="translate(-375 -1310)"><use fill="#00487c" xlink:href="#e"/><use fill="#fff" fill-opacity="0" stroke="#e7ecf0" stroke-miterlimit="50" stroke-width=".1" xlink:href="#e"/></g></svg>