<svg xmlns="http://www.w3.org/2000/svg" xmlns:xlink="http://www.w3.org/1999/xlink" width="44" height="34" viewBox="0 0 44 34"><defs><path id="a" d="M109 1252.51v21.57a3.08 3.08 0 0 1-3.07 3.07H68.07a3.08 3.08 0 0 1-3.07-3.07v-21.57c0-1.7 1.38-3.07 3.07-3.07h10.95v-1.92a3.53 3.53 0 0 1 3.52-3.52h8.92a3.53 3.53 0 0 1 3.52 3.52v1.92h10.95a3.07 3.07 0 0 1 3.07 3.07zm-28.22-3.07h12.44v-1.92c0-.97-.79-1.77-1.76-1.77h-8.92c-.97 0-1.76.8-1.76 1.77zm26.47 24.64v-21.57c0-.73-.59-1.32-1.32-1.32H68.07c-.73 0-1.32.59-1.32 1.32v2.7l13.66 6.62a3.5 3.5 0 0 1 3.26-2.22h6.66a3.5 3.5 0 0 1 3.26 2.22l7.84-3.8a.88.88 0 0 1 .77 1.58l-8.41 4.08a3.52 3.52 0 0 1-3.46 2.94h-6.66a3.52 3.52 0 0 1-3.46-2.94l-13.46-6.53v16.92c0 .73.59 1.32 1.32 1.32h37.86c.73 0 1.32-.59 1.32-1.32zm-23.58-9.21h6.66a1.75 1.75 0 1 0 0-3.51h-6.66a1.75 1.75 0 0 0 0 3.51z"/><path id="b" d="M106.13 1256.49a.84.84 0 0 0-1.13-.4l-.52.26a.9.9 0 0 0-.4 1.17c.15.31.45.49.77.49.12 0 .25-.03.36-.09l.52-.26a.9.9 0 0 0 .4-1.17z"/></defs><g transform="translate(-65 -1244)"><use fill="#00487c" xlink:href="#a"/></g><g transform="translate(-65 -1244)"><use fill="#00487c" xlink:href="#b"/></g></svg>