<svg xmlns="http://www.w3.org/2000/svg" xmlns:xlink="http://www.w3.org/1999/xlink" width="42" height="42" viewBox="0 0 42 42"><defs><path id="a" d="M106 1192c0 5.61-2.18 10.88-6.15 14.85A20.85 20.85 0 0 1 85 1213a20.85 20.85 0 0 1-14.85-6.15A20.85 20.85 0 0 1 64 1192c0-5.61 2.18-10.88 6.15-14.85a20.99 20.99 0 0 1 30.67 1.04 4.23 4.23 0 0 1 5.01 4.15c0 1-.41 1.99-.95 2.87A21.1 21.1 0 0 1 106 1192zm-6.94-9.66c0 1.46 1.54 3.23 2.55 4.19 1.01-.96 2.55-2.73 2.55-4.19a2.56 2.56 0 0 0-2.55-2.56 2.56 2.56 0 0 0-2.55 2.56zm-8.41-8.83a15.62 15.62 0 0 1 3.07 3.94c2.08 3.69 3.28 8.52 3.4 13.67h7.19a19.2 19.2 0 0 0-.68-4.27c-.7.79-1.34 1.32-1.49 1.45a.88.88 0 0 1-.53.19.86.86 0 0 1-.53-.19c-.38-.31-3.7-3.11-3.7-5.96 0-1.43.72-2.7 1.81-3.46a19.33 19.33 0 0 0-8.54-5.37zm-12.36 3.86a4.24 4.24 0 0 1 5.12 4.13c0 2.85-3.32 5.65-3.7 5.96a.8.8 0 0 1-.52.19.8.8 0 0 1-.53-.19 12.93 12.93 0 0 1-3.09-3.7 32.04 32.04 0 0 0-1.02 7.36h9.61v-18.22c-2.15.32-4.19 1.88-5.87 4.47zm.89 8.32c1.02-.96 2.56-2.73 2.56-4.19a2.55 2.55 0 0 0-5.11 0c0 1.46 1.54 3.24 2.55 4.19zm-13.49 5.43h7.19c.12-5.15 1.32-9.98 3.4-13.67a15.38 15.38 0 0 1 3.07-3.93 19.37 19.37 0 0 0-13.66 17.6zm13.66 19.36c-1.12-1-2.16-2.32-3.07-3.93-2.09-3.71-3.29-8.57-3.4-13.76h-7.19a19.35 19.35 0 0 0 13.66 17.69zm4.81.62v-4.04c-.88-.78-3.43-3.23-3.43-5.73a4.23 4.23 0 0 1 3.43-4.15v-4.39h-9.61c.11 4.9 1.23 9.47 3.19 12.94 1.77 3.14 4.03 5.01 6.42 5.37zm3.35-9.77a2.55 2.55 0 1 0-5.1 0c0 1.46 1.54 3.23 2.55 4.19 1.01-.96 2.55-2.73 2.55-4.19zm4.75 4.4c1.96-3.47 3.08-8.04 3.19-12.94h-3.92a.83.83 0 0 1-.84-.83c0-.46.37-.84.84-.84h3.92c-.12-4.87-1.24-9.4-3.19-12.85-1.77-3.14-4.03-5.01-6.42-5.37v24.3c1.91.4 3.34 2.1 3.34 4.13 0 2.42-2.39 4.81-3.34 5.66v4.11c2.39-.36 4.65-2.23 6.42-5.37zm12.05-12.94h-7.19c-.11 5.19-1.31 10.05-3.4 13.76a15.38 15.38 0 0 1-3.07 3.93 19.35 19.35 0 0 0 13.66-17.69z"/></defs><g transform="translate(-64 -1171)"><use fill="#00487c" xlink:href="#a"/></g></svg>