<svg xmlns="http://www.w3.org/2000/svg" xmlns:xlink="http://www.w3.org/1999/xlink" width="42" height="26" viewBox="0 0 42 26"><defs><path id="l65ca" d="M309 21a1 1 0 0 1 1-1h40a1 1 0 0 1 0 2h-40a1 1 0 0 1-1-1z"/><path id="l65cb" d="M309 33a1 1 0 0 1 1-1h40a1 1 0 0 1 0 2h-40a1 1 0 0 1-1-1z"/><path id="l65cc" d="M309 45a1 1 0 0 1 1-1h40a1 1 0 0 1 0 2h-40a1 1 0 0 1-1-1z"/></defs><g><g transform="translate(-309 -20)"><use fill="#363636" xlink:href="#l65ca"/></g><g transform="translate(-309 -20)"><use fill="#363636" xlink:href="#l65cb"/></g><g transform="translate(-309 -20)"><use fill="#363636" xlink:href="#l65cc"/></g></g></svg>