<?xml version="1.0" encoding="UTF-8"?>
<svg width="32px" height="32px" viewBox="0 0 32 32" version="1.1" xmlns="http://www.w3.org/2000/svg" xmlns:xlink="http://www.w3.org/1999/xlink">
    <!-- Generator: Sketch 52.5 (67469) - http://www.bohemiancoding.com/sketch -->
    <title>Group 3</title>
    <desc>Created with Sketch.</desc>
    <g id="Page-1" stroke="none" stroke-width="1" fill="none" fill-rule="evenodd">
        <g id="Group-3">
            <rect id="Rectangle" fill="#FFFFFF" fill-rule="nonzero" x="0" y="0" width="32" height="32"></rect>
            <path d="M19.2138551,8 L12.7581449,8 C10.1344928,8 8,10.1344928 8,12.7581449 L8,19.2138551 C8,21.8375072 10.1344928,23.972 12.7581449,23.972 L19.2138551,23.972 C21.8375072,23.972 23.972,21.8375072 23.972,19.2138551 L23.972,12.7581449 C23.971971,10.1344928 21.8374783,8 19.2138551,8 Z M22.3652174,19.2138551 C22.3652174,20.9542899 20.9542899,22.3652174 19.2138551,22.3652174 L12.7581449,22.3652174 C11.0177101,22.3652174 9.60678261,20.9542899 9.60678261,19.2138551 L9.60678261,12.7581449 C9.60678261,11.0176812 11.0177101,9.60678261 12.7581449,9.60678261 L19.2138551,9.60678261 C20.9542899,9.60678261 22.3652174,11.0176812 22.3652174,12.7581449 L22.3652174,19.2138551 Z" id="Shape" fill="#14335F" fill-rule="nonzero"></path>
            <path d="M15.986,11.8550725 C13.7082029,11.8550725 11.8550725,13.7082029 11.8550725,15.985971 C11.8550725,18.2637391 13.7082029,20.1168986 15.986,20.1168986 C18.2637971,20.1168986 20.1169275,18.2637681 20.1169275,15.985971 C20.1169275,13.7081739 18.2637971,11.8550725 15.986,11.8550725 Z M15.986,18.5101449 C14.591942,18.5101449 13.4618551,17.380058 13.4618551,15.986 C13.4618551,14.591942 14.591971,13.4618551 15.986,13.4618551 C17.380058,13.4618551 18.5101449,14.591942 18.5101449,15.986 C18.5101449,17.380029 17.380029,18.5101449 15.986,18.5101449 Z" id="Shape" fill="#14335F" fill-rule="nonzero"></path>
            <circle id="Oval" fill="#14335F" cx="20.1249275" cy="11.886087" r="1"></circle>
        </g>
    </g>
</svg>