<svg xmlns="http://www.w3.org/2000/svg" xmlns:xlink="http://www.w3.org/1999/xlink" width="40" height="44" viewBox="0 0 40 44"><defs><path id="a" d="M399.88 1257.35a4.59 4.59 0 0 0-7.84 3.85.82.82 0 1 0 1.63-.21c-.12-.92.19-1.82.85-2.48a2.94 2.94 0 0 1 4.19 0 2.94 2.94 0 0 1 0 4.19c-.67.67-1.59.97-2.54.83a.82.82 0 0 0-.24 1.63 4.64 4.64 0 0 0 5.3-4.56c0-1.23-.48-2.38-1.35-3.25z"/><path id="b" d="M394.75 1263.31l-.01-.01c-.4-.4-1.04-.4-1.44 0-.4.4-.4 1.04 0 1.44l.01.01a1.02 1.02 0 0 0 1.44 0c.4-.4.4-1.04 0-1.44z"/><path id="c" d="M390.96 1275.62l-.01-.02c-.22-.51-.83-.74-1.34-.51a1 1 0 0 0-.52 1.34l.01.01c.17.38.54.61.93.61.14 0 .28-.03.41-.09.52-.23.75-.83.52-1.34z"/><path id="d" d="M414.63 1258.19a1.01 1.01 0 0 0-1.42.23l-.02.02a1 1 0 0 0 .23 1.41c.18.13.39.2.6.2.31 0 .62-.15.82-.42l.02-.02c.33-.45.23-1.09-.23-1.42z"/><path id="e" d="M416.27 1272c-1.23 2.11-3.87 3.23-7.54 3.23a22.45 22.45 0 0 1-3.6-.31c-.18.47-.37.93-.58 1.38-1.87 4.15-4.45 6.53-7.24 6.69l-.31.01c-2.37 0-4.66-1.63-6.47-4.62a.87.87 0 0 1 .3-1.18.89.89 0 0 1 1.2.3c1.53 2.54 3.37 3.88 5.17 3.78 2.12-.13 4.17-2.14 5.77-5.68.15-.33.29-.67.43-1.02a38.3 38.3 0 0 1-6.4-2.07 34.89 34.89 0 0 1-9.62 2.61c-.74.07-1.44.11-2.11.11-3.67 0-6.31-1.12-7.54-3.23-1.46-2.5-.72-5.98 2.09-9.82.29-.39.6-.79.93-1.18-.33-.39-.64-.79-.93-1.18-2.7-3.69-3.49-7.08-2.23-9.55 1.11-2.2 3.75-3.44 7.42-3.5h.01c.48 0 .86.38.87.85a.87.87 0 0 1-.86.87c-2.99.04-5.08.95-5.89 2.55-.95 1.87-.21 4.63 2.09 7.77.21.29.44.58.67.87a38.63 38.63 0 0 1 5.02-4.44 33.73 33.73 0 0 1 2.53-9.54c1.95-4.32 4.63-6.7 7.55-6.7s5.6 2.38 7.55 6.7c.21.45.4.91.58 1.38.5-.08 1-.15 1.49-.2 4.58-.47 7.95.55 9.49 2.86 1.37 2.06 1.14 4.94-.65 8.11a.87.87 0 0 1-1.18.33.86.86 0 0 1-.34-1.17c1.46-2.58 1.71-4.83.72-6.32-1.17-1.75-3.96-2.5-7.86-2.1l-1.1.14c.63 2 1.09 4.2 1.38 6.52a34.25 34.25 0 0 1 7.1 6.93c2.81 3.84 3.55 7.32 2.09 9.82zm-8.84-11c0 1.14-.04 2.27-.12 3.38a32.9 32.9 0 0 0 3.64-3.38 35.02 35.02 0 0 0-3.64-3.38c.08 1.11.12 2.24.12 3.38zm-3.45-11.95c-1.57.34-3.18.82-4.8 1.43a48.78 48.78 0 0 1 5.95 3.39 34.67 34.67 0 0 0-1.15-4.82zm-13.38-1.63c2.06.46 4.23 1.17 6.4 2.07a38 38 0 0 1 6.4-2.07c-.14-.35-.28-.69-.43-1.02-1.64-3.61-3.81-5.68-5.97-5.68-2.16 0-4.33 2.07-5.97 5.68-.15.33-.29.67-.43 1.02zm-1.71 6.44a48.55 48.55 0 0 1 5.92-3.38 35.08 35.08 0 0 0-4.79-1.43c-.48 1.5-.86 3.12-1.13 4.81zm-5.85 7.14a34.09 34.09 0 0 0 3.65 3.39 48.95 48.95 0 0 1 0-6.78 34.09 34.09 0 0 0-3.65 3.39zm5.26 12.27c-.62-2-1.09-4.2-1.38-6.51a37.95 37.95 0 0 1-5.02-4.45l-.67.88c-2.35 3.2-3.07 6.1-1.99 7.95 1.07 1.85 3.98 2.68 7.96 2.27l1.1-.14zm6.5-1.75a51.48 51.48 0 0 1-5.92-3.38c.28 1.68.66 3.3 1.14 4.81 1.56-.34 3.16-.83 4.78-1.43zm10.33-3.39a50.35 50.35 0 0 1-5.95 3.39c1.62.61 3.23 1.09 4.8 1.43.48-1.51.87-3.13 1.15-4.82zm.31-11.93a46.42 46.42 0 0 0-8.45-4.83 46.45 46.45 0 0 0-8.42 4.8 45.78 45.78 0 0 0 0 9.65 46.41 46.41 0 0 0 8.42 4.81 47.13 47.13 0 0 0 8.45-4.82 45.4 45.4 0 0 0 0-9.61zm7.33 6.99c-.21-.29-.44-.58-.68-.88a37.79 37.79 0 0 1-5.01 4.44 37.16 37.16 0 0 1-1.38 6.52l1.1.14c3.98.41 6.89-.42 7.96-2.27 1.08-1.85.36-4.75-1.99-7.95z"/><path id="f" d="M387.14 1247.01h-.02a1 1 0 0 0-1.11.91c-.06.56.34 1.06.9 1.12h.02l.11.01a1.03 1.03 0 0 0 .1-2.04z"/></defs><g transform="translate(-377 -1239)"><use fill="#00487c" xlink:href="#a"/></g><g transform="translate(-377 -1239)"><use fill="#00487c" xlink:href="#b"/></g><g transform="translate(-377 -1239)"><use fill="#00487c" xlink:href="#c"/></g><g transform="translate(-377 -1239)"><use fill="#00487c" xlink:href="#d"/></g><g transform="translate(-377 -1239)"><use fill="#00487c" xlink:href="#e"/></g><g transform="translate(-377 -1239)"><use fill="#00487c" xlink:href="#f"/></g></svg>