<?xml version="1.0" encoding="UTF-8"?>
<svg width="32px" height="45px" viewBox="0 0 32 45" version="1.1" xmlns="http://www.w3.org/2000/svg" xmlns:xlink="http://www.w3.org/1999/xlink">
    <!-- Generator: Sketch 47.1 (45422) - http://www.bohemiancoding.com/sketch -->
    <title>placeholder-2 copy 2</title>
    <desc>Created with Sketch.</desc>
    <defs></defs>
    <g id="Page-1" stroke="none" stroke-width="1" fill="none" fill-rule="evenodd">
        <g id="22-contacts" transform="translate(-730.000000, -1012.000000)" fill-rule="nonzero" fill="#0F3681">
            <g id="placeholder-2-copy-2" transform="translate(730.000000, 1012.000000)">
                <path d="M27.0276923,4.59572727 C24.0557949,1.63227273 20.1042051,0 15.9015385,0 C11.6980513,0 7.74728205,1.63227273 4.77538462,4.59572727 C-0.724512821,10.0791818 -1.408,20.3964545 3.29517949,26.6473636 L15.9015385,44.8011818 L28.4890256,26.6727273 C33.2110769,20.3964545 32.5275897,10.0791818 27.0276923,4.59572727 Z M16.0467692,21.2727273 C12.8804103,21.2727273 10.3031795,18.7028182 10.3031795,15.5454545 C10.3031795,12.3880909 12.8804103,9.81818182 16.0467692,9.81818182 C19.2131282,9.81818182 21.790359,12.3880909 21.790359,15.5454545 C21.790359,18.7028182 19.2131282,21.2727273 16.0467692,21.2727273 Z" id="Shape"></path>
            </g>
        </g>
    </g>
</svg>