<svg xmlns="http://www.w3.org/2000/svg" xmlns:xlink="http://www.w3.org/1999/xlink" width="40" height="40" viewBox="0 0 40 40"><defs><path id="6tvxa" d="M293.15 826.81v-17.19h-2.64a3.53 3.53 0 0 0-3.51 3.54v23.24a3.51 3.51 0 0 0 3.51 3.53h23.25a3.54 3.54 0 0 0 3.55-3.53v-2.54H300.2a7.09 7.09 0 0 1-7.05-7.05z"/><path id="6tvxb" d="M326.97 803.56v23.25a3.53 3.53 0 0 1-3.53 3.54H300.2a3.54 3.54 0 0 1-3.54-3.54v-23.25a3.53 3.53 0 0 1 3.54-3.52h23.24a3.52 3.52 0 0 1 3.53 3.52zm-4.05 20.17l-3.68-5.63a1.7 1.7 0 0 0-2.38-.47l-3.67 2.49a1.7 1.7 0 0 1-2.33-.42l-3.99-5.6a1.7 1.7 0 0 0-3 .49L301 824c-.1.34-.04.7.17.98.21.28.54.44.9.44h19.91a1.1 1.1 0 0 0 .93-1.7z"/></defs><g><g transform="translate(-287 -800)"><use fill="#fff" xlink:href="#6tvxa"/></g><g transform="translate(-287 -800)"><use fill="#fff" xlink:href="#6tvxb"/></g></g></svg>