<svg xmlns="http://www.w3.org/2000/svg" xmlns:xlink="http://www.w3.org/1999/xlink" width="42" height="32" viewBox="0 0 42 32"><defs><path id="a" d="M95.17 1316H70.84a.84.84 0 0 0-.84.84c0 .47.37.84.84.84h24.33c.46 0 .83-.37.83-.84a.84.84 0 0 0-.83-.84z"/><path id="b" d="M100.89 1316h-1.05a.84.84 0 0 0-.84.84c0 .47.37.84.84.84h1.05a.84.84 0 1 0 0-1.68z"/><path id="c" d="M108 1327.5v9.18c0 .46-.37.84-.84.84h-1.17v6.56c0 .47-.38.84-.84.84H70.91a4.92 4.92 0 0 1-4.91-4.93v-22.89-.03a4.06 4.06 0 0 1 4.05-4.07h32.85a3.1 3.1 0 0 1 3.09 3.1v10.56h1.17c.47 0 .84.38.84.84zm-40.33-10.43a2.39 2.39 0 0 0 2.38 2.38h34.27v-3.35c0-.78-.64-1.42-1.42-1.42H70.05a2.39 2.39 0 0 0-2.38 2.39zm36.65 20.45h-4.76a5.42 5.42 0 0 1 0-10.86h4.76v-5.53H70.05a4 4 0 0 1-2.38-.77v19.63a3.25 3.25 0 0 0 3.24 3.25h33.41zm2.01-9.17h-6.77a3.74 3.74 0 1 0 0 7.49h6.77z"/><path id="d" d="M101.89 1332.46c0 1.35-1.1 2.45-2.45 2.45a2.45 2.45 0 0 1 0-4.91c1.35 0 2.45 1.1 2.45 2.46zm-1.68 0a.77.77 0 0 0-.77-.78.78.78 0 0 0 0 1.55c.43 0 .77-.35.77-.77z"/></defs><g transform="translate(-66 -1313)"><use fill="#00487c" xlink:href="#a"/></g><g transform="translate(-66 -1313)"><use fill="#00487c" xlink:href="#b"/></g><g transform="translate(-66 -1313)"><use fill="#00487c" xlink:href="#c"/></g><g transform="translate(-66 -1313)"><use fill="#00487c" xlink:href="#d"/></g></svg>