<svg xmlns="http://www.w3.org/2000/svg" xmlns:xlink="http://www.w3.org/1999/xlink" width="42" height="42" viewBox="0 0 42 42"><defs><path id="z1r3a" d="M71.33 420.67a4.67 4.67 0 1 1 9.34 0 4.67 4.67 0 0 1-9.34 0zm1.33 0a3.34 3.34 0 1 0 6.68-.01 3.34 3.34 0 0 0-6.68 0z"/><path id="z1r3b" d="M65.64 429.71c-3.82-5.1-3.26-13.5 1.2-17.97a12.7 12.7 0 0 1 9.04-3.74 12.7 12.7 0 0 1 9.04 3.75c4.47 4.46 5.03 12.87 1.2 17.98L75.87 444.5zm1.08-.78l9.16 13.23 9.15-13.2c3.48-4.65 2.99-12.24-1.05-16.27a11.38 11.38 0 0 0-8.1-3.36c-3.05 0-5.93 1.2-8.1 3.36-4.03 4.03-4.52 11.62-1.06 16.24z"/><path id="z1r3c" d="M84.08 436.68a.67.67 0 0 0-.16 1.32c7.01.82 10.75 3.05 10.75 4.34 0 1.8-7.1 4.33-18.67 4.33-11.57 0-18.67-2.52-18.67-4.33 0-1.3 3.74-3.52 10.75-4.34a.67.67 0 0 0-.16-1.32c-7.02.82-11.92 3.15-11.92 5.66 0 2.81 6.87 5.66 20 5.66 13.13 0 20-2.85 20-5.66 0-2.51-4.9-4.84-11.92-5.66z"/></defs><g><g transform="translate(-55 -407)"><use fill="#00487c" xlink:href="#z1r3a"/><use fill="#fff" fill-opacity="0" stroke="#00487c" stroke-miterlimit="50" stroke-width=".5" xlink:href="#z1r3a"/></g><g transform="translate(-55 -407)"><use fill="#00487c" xlink:href="#z1r3b"/><use fill="#fff" fill-opacity="0" stroke="#00487c" stroke-miterlimit="50" stroke-width=".5" xlink:href="#z1r3b"/></g><g transform="translate(-55 -407)"><use fill="#00487c" xlink:href="#z1r3c"/><use fill="#fff" fill-opacity="0" stroke="#00487c" stroke-miterlimit="50" stroke-width=".5" xlink:href="#z1r3c"/></g></g></svg>