<?xml version="1.0" encoding="UTF-8"?>
<svg width="60px" height="56px" viewBox="0 0 60 56" version="1.1" xmlns="http://www.w3.org/2000/svg" xmlns:xlink="http://www.w3.org/1999/xlink">
    <!-- Generator: Sketch 47.1 (45422) - http://www.bohemiancoding.com/sketch -->
    <title>Combined Shape</title>
    <desc>Created with Sketch.</desc>
    <defs></defs>
    <g id="Page-1" stroke="none" stroke-width="1" fill="none" fill-rule="evenodd">
        <path d="M0,0 L60,0 L60,56 L0,56 L0,0 Z M4,32 L4,44 L11,44 L11,32 L4,32 Z M15,27 L15,44 L22,44 L22,27 L15,27 Z M26,22 L26,44 L33,44 L33,22 L26,22 Z M37,17 L37,44 L44,44 L44,17 L37,17 Z M49,12 L49,44 L56,44 L56,12 L49,12 Z" id="Combined-Shape" fill="#FFFFFF"></path>
    </g>
</svg>