<?xml version="1.0" encoding="UTF-8"?>
<svg width="32px" height="32px" viewBox="0 0 32 32" version="1.1" xmlns="http://www.w3.org/2000/svg" xmlns:xlink="http://www.w3.org/1999/xlink">
    <!-- Generator: Sketch 47.1 (45422) - http://www.bohemiancoding.com/sketch -->
    <title>Shape</title>
    <desc>Created with Sketch.</desc>
    <defs></defs>
    <g id="Page-1" stroke="none" stroke-width="1" fill="none" fill-rule="evenodd">
        <g id="main-new-v1" transform="translate(-560.000000, -1397.000000)" fill="#0F3681">
            <path d="M589.765283,1404.97765 C585.360863,1397.34895 575.605638,1394.73501 567.977549,1399.14024 C560.348851,1403.54405 557.734806,1413.29887 562.140038,1420.92726 C566.543848,1428.55596 576.298768,1431.17031 583.926959,1426.76549 C591.555759,1422.36015 594.171022,1412.60584 589.765283,1404.97765 L589.765283,1404.97765 Z M581.694476,1412.30433 L573.342578,1407.43332 C572.581486,1406.98898 571.967594,1407.34423 571.97186,1408.22458 L572.014629,1417.89305 C572.018489,1418.77321 572.639898,1419.1315 573.403225,1418.69062 L581.691225,1413.90555 C582.45374,1413.46547 582.455365,1412.74867 581.694476,1412.30433 L581.694476,1412.30433 Z" id="Shape"></path>
        </g>
    </g>
</svg>