<?xml version="1.0" encoding="UTF-8"?>
<svg width="32px" height="32px" viewBox="0 0 32 32" version="1.1" xmlns="http://www.w3.org/2000/svg" xmlns:xlink="http://www.w3.org/1999/xlink">
    <!-- Generator: Sketch 47.1 (45422) - http://www.bohemiancoding.com/sketch -->
    <title>Combined Shape</title>
    <desc>Created with Sketch.</desc>
    <defs></defs>
    <g id="Page-1" stroke="none" stroke-width="1" fill="none" fill-rule="evenodd">
        <g id="main-new-v1.2" transform="translate(-560.000000, -1397.000000)" fill="#0F3681">
            <path d="M589.765283,1404.97765 C594.171022,1412.60584 591.555759,1422.36015 583.926959,1426.76549 C576.298768,1431.17031 566.543848,1428.55596 562.140038,1420.92726 C557.734806,1413.29887 560.348851,1403.54405 567.977549,1399.14024 C575.605638,1394.73501 585.360863,1397.34895 589.765283,1404.97765 Z M571,1406 C570.447715,1406 570,1406.44772 570,1407 L570,1419 C570,1419.55228 570.447715,1420 571,1420 L571,1420 L573,1420 C573.552285,1420 574,1419.55228 574,1419 L574,1407 C574,1406.44772 573.552285,1406 573,1406 L571,1406 Z M579,1406 C578.447715,1406 578,1406.44772 578,1407 L578,1419 C578,1419.55228 578.447715,1420 579,1420 L579,1420 L581,1420 C581.552285,1420 582,1419.55228 582,1419 L582,1407 C582,1406.44772 581.552285,1406 581,1406 L579,1406 Z" id="Combined-Shape"></path>
        </g>
    </g>
</svg>