<svg xmlns="http://www.w3.org/2000/svg" xmlns:xlink="http://www.w3.org/1999/xlink" width="64" height="64" viewBox="0 0 64 64"><defs><path id="xkhxa" d="M825.72 4525.44a31.76 31.76 0 0 1-31.72-31.72 31.76 31.76 0 0 1 31.72-31.72 31.76 31.76 0 0 1 31.72 31.72 31.76 31.76 0 0 1-31.72 31.72zm14.32-31.49c0-1.13-.82-2.04-1.82-2.04h-10.23v-10.7c0-1-.91-1.81-2.04-1.81s-2.04.81-2.04 1.81v10.7h-10.7c-1 0-1.81.91-1.81 2.04s.81 2.04 1.81 2.04h10.7v10.24c0 1 .91 1.81 2.04 1.81s2.04-.81 2.04-1.81v-10.24h10.23c1.01 0 1.82-.91 1.82-2.04z"/></defs><g><g opacity=".7" transform="translate(-794 -4462)"><use fill="#fff" xlink:href="#xkhxa"/></g></g></svg>