<svg xmlns="http://www.w3.org/2000/svg" xmlns:xlink="http://www.w3.org/1999/xlink" width="16" height="14" viewBox="0 0 16 14"><defs><path id="a" d="M1163.71 1459.55c-.35.15-.72.28-1.1.37.42-.4.73-.89.91-1.45.05-.15-.12-.29-.26-.21-.53.32-1.1.55-1.69.7l-.1.01a.46.46 0 0 1-.3-.11 3.47 3.47 0 0 0-3.37-.69 3.33 3.33 0 0 0-2.24 2.4c-.11.43-.13.85-.09 1.27a.1.1 0 0 1-.03.1.15.15 0 0 1-.09.04h-.01a9.05 9.05 0 0 1-6.21-3.32.18.18 0 0 0-.29.03 3.44 3.44 0 0 0 .56 4.18 3.14 3.14 0 0 1-.79-.3c-.12-.07-.26.02-.27.15a3.47 3.47 0 0 0 2.02 3.18h-.08c-.19 0-.39-.02-.58-.06a.18.18 0 0 0-.2.23 3.42 3.42 0 0 0 2.72 2.35 6.32 6.32 0 0 1-3.56 1.08h-.39a.26.26 0 0 0-.26.2c-.03.12.02.24.13.3a9.43 9.43 0 0 0 4.75 1.28c1.46 0 2.82-.29 4.05-.86a8.94 8.94 0 0 0 2.97-2.22 9.81 9.81 0 0 0 2.44-6.38v-.05a.6.6 0 0 1 .22-.46c.53-.43.99-.93 1.37-1.5.1-.15-.06-.34-.23-.26z"/></defs><g transform="translate(-1148 -1458)"><use fill="#083362" xlink:href="#a"/></g></svg>