<svg xmlns="http://www.w3.org/2000/svg" xmlns:xlink="http://www.w3.org/1999/xlink" width="14" height="16" viewBox="0 0 14 16"><defs><path id="a" d="M1205.99 1464.48c.16.67.23 1.71.23 3.12 0 1.4-.07 2.44-.23 3.13-.08.35-.25.64-.52.88-.26.24-.56.37-.91.41a46 46 0 0 1-4.95.19 46 46 0 0 1-4.95-.19 1.56 1.56 0 0 1-.91-.41 1.63 1.63 0 0 1-.52-.88 15.6 15.6 0 0 1-.23-3.13c0-1.39.08-2.43.23-3.12.09-.35.26-.64.52-.88s.57-.38.92-.42c1.09-.12 2.73-.18 4.94-.18 2.21 0 3.86.06 4.95.18a1.67 1.67 0 0 1 1.43 1.3zm-9.22.9v-.84h-2.78v.84h.94v5.08h.89v-5.08zm2.41 5.08v-4.41h-.79v3.37c-.18.25-.35.38-.51.38-.11 0-.17-.06-.19-.19l-.01-.31v-3.25h-.79v3.49c0 .29.02.51.07.65.07.22.25.33.52.33.28 0 .59-.18.91-.54v.48zm3.04-1.32v-1.76c0-.43-.03-.73-.08-.88-.1-.34-.32-.5-.64-.5-.29 0-.57.16-.83.48v-1.94h-.79v5.92h.79v-.43c.27.33.55.49.83.49.32 0 .54-.16.64-.49.05-.16.08-.46.08-.89zm3.01-.73v-.92c0-.47-.08-.82-.24-1.04-.23-.3-.55-.45-.94-.45-.41 0-.73.15-.96.45-.17.22-.25.57-.25 1.04v1.54c0 .47.09.82.26 1.04.23.3.55.45.96.45.43 0 .75-.16.97-.47.1-.16.17-.32.18-.48.02-.06.02-.23.02-.52v-.12h-.81c0 .31-.01.49-.02.55-.04.21-.16.32-.35.32-.28 0-.41-.21-.41-.62v-.77z"/><path id="b" d="M1204.4 1467c-.27 0-.4.2-.4.61v.41h.8v-.41c0-.41-.13-.61-.4-.61z"/><path id="c" d="M1196.12 1459.56v2.42h.9v-2.42l1.08-3.56h-.91l-.61 2.35-.63-2.35h-.95l.58 1.67c.28.82.46 1.45.54 1.89z"/><path id="d" d="M1199.19 1461.57c-.4 0-.71-.15-.94-.46-.17-.22-.25-.57-.25-1.05v-1.56c0-.48.08-.82.25-1.04.23-.31.54-.46.94-.46.41 0 .72.15.94.46.17.22.25.56.25 1.04v1.56c0 .48-.08.83-.25 1.05-.22.31-.53.46-.94.46zm-.39-3.23v1.87c0 .42.13.63.39.63.25 0 .38-.21.38-.63v-1.87c0-.41-.13-.62-.38-.62-.26 0-.39.21-.39.62z"/><path id="e" d="M1201.6 1462.51c.3 0 .6-.18.92-.55v.49h.81V1458h-.81v3.4c-.18.26-.35.38-.51.38-.11 0-.17-.06-.19-.19l-.01-.32V1458h-.81v3.52c0 .3.02.52.07.66.08.22.25.33.53.33z"/></defs><g transform="translate(-1193 -1456)"><use fill="#083362" xlink:href="#a"/></g><g transform="translate(-1193 -1456)"><use fill="#083362" xlink:href="#b"/></g><g transform="translate(-1193 -1456)"><use fill="#083362" xlink:href="#c"/></g><g transform="translate(-1193 -1456)"><use fill="#083362" xlink:href="#d"/></g><g transform="translate(-1193 -1456)"><use fill="#083362" xlink:href="#e"/></g></svg>